<?xml version="1.0" encoding="utf-8"?>
<!-- Svg Vector Icons : http://www.onlinewebfonts.com/icon -->
<!DOCTYPE svg PUBLIC "-//W3C//DTD SVG 1.1//EN" "http://www.w3.org/Graphics/SVG/1.1/DTD/svg11.dtd">
<svg version="1.1" xmlns="http://www.w3.org/2000/svg" xmlns:xlink="http://www.w3.org/1999/xlink" x="0px" y="0px" viewBox="0 0 1000 1000" enable-background="new 0 0 1000 1000" xml:space="preserve">
<metadata> Svg Vector Icons : http://www.onlinewebfonts.com/icon </metadata>
<g><path d="M500,990c-86.1,0-170.9-22.7-245-65.6c-14.6-8.5-19.6-27.2-11.2-41.8c8.5-14.6,27.2-19.6,41.8-11.2c64.8,37.5,138.9,57.3,214.3,57.3c236.4,0,428.8-192.3,428.8-428.8c0-236.4-192.3-428.8-428.8-428.8C263.6,71.3,71.3,263.6,71.3,500c0,98.8,34.4,195.2,96.9,271.5c10.7,13.1,8.8,32.4-4.3,43.1c-13.1,10.7-32.4,8.8-43.1-4.3C49.3,723.1,10,612.9,10,500C10,229.8,229.8,10,500,10c270.2,0,490,219.8,490,490C990,770.2,770.2,990,500,990z"/><path d="M285.6,500l168.4,168.4L285.6,500z"/><path d="M729.7,392.8L454.1,668.4L729.7,392.8z"/><path d="M760.3,530.6H239.7c-16.9,0-30.6-13.7-30.6-30.6s13.7-30.6,30.6-30.6h520.6c16.9,0,30.6,13.7,30.6,30.6S777.2,530.6,760.3,530.6z"/><path d="M500,790.9c-16.9,0-30.6-13.7-30.6-30.6V239.7c0-16.9,13.7-30.6,30.6-30.6s30.6,13.7,30.6,30.6v520.6C530.6,777.2,516.9,790.9,500,790.9z"/></g>
</svg>